<svg width="104" height="23" viewBox="0 0 104 23" fill="none" xmlns="http://www.w3.org/2000/svg">
<g clip-path="url(#clip0)">
<path d="M56.7265 2.57019C57.8439 1.49764 59.2197 0.722967 60.7246 0.319053C61.8827 0.0197319 63.0914 -0.0390913 64.2738 0.146307C65.4562 0.331705 66.5866 0.75727 67.5933 1.39603C68.6 2.03479 69.461 2.87281 70.1218 3.8569C70.7826 4.841 71.2286 5.94969 71.4317 7.11268C71.5312 7.71893 71.5767 8.33262 71.5675 8.9467C71.5787 13.0116 71.5541 17.0771 71.5904 21.142C71.5975 21.8802 71.3656 22.0789 70.6512 22.0387C69.6202 21.9837 68.5869 21.9837 67.5559 22.0387C66.8735 22.0746 66.6572 21.8845 66.6628 21.1842C66.6965 17.0722 66.6847 12.9595 66.6771 8.84719C66.6727 6.83585 65.409 5.26653 63.5788 4.96164C63.0471 4.8578 62.4987 4.87202 61.9733 5.00325C61.4479 5.13449 60.9588 5.37945 60.5415 5.72033C60.1242 6.06122 59.7891 6.48946 59.5607 6.97394C59.3323 7.45842 59.2163 7.98696 59.2211 8.52117C59.1968 12.7044 59.212 16.8879 59.2103 21.0708C59.2103 22.0234 59.2088 22.0254 58.225 22.0254C56.9357 22.0254 55.645 22.0254 54.2653 22.0254C54.2653 21.6227 54.2653 21.3207 54.2653 21.0187C54.2518 16.7664 54.2653 12.5111 54.211 8.25764C54.1872 6.41727 52.6097 4.98015 50.6892 4.89481C49.8065 4.86518 48.9423 5.14899 48.2541 5.69459C47.5659 6.24018 47.0994 7.01126 46.9395 7.8674C46.8873 8.24116 46.8644 8.61835 46.8712 8.99558C46.8665 13.0608 46.8556 17.1259 46.882 21.1908C46.8861 21.8293 46.7233 22.0627 46.045 22.0379C44.7088 21.989 43.3696 22.0234 41.9468 22.0234V21.1067C41.9468 16.9 41.8989 12.6922 41.9612 8.48646C42.0169 4.7548 43.8715 2.06252 47.3563 0.678052C50.6601 -0.634391 53.7558 -0.0194053 56.45 2.33067C56.5181 2.39228 56.5897 2.45245 56.7265 2.57019Z" fill="#F9FAFB"/>
<path d="M20.7268 13.1164C21.3112 15.3548 22.555 16.9669 24.5298 17.9721C26.2145 18.8507 28.1783 19.0542 30.0115 18.5404C31.8448 18.0266 33.406 16.835 34.3696 15.2142C34.4177 15.1244 34.4844 15.0454 34.5652 14.9824C34.6461 14.9194 34.7393 14.8737 34.8391 14.8483C36.2235 14.8193 37.6091 14.8318 39.08 14.8318C38.7199 16.1665 38.0772 17.411 37.1941 18.4833C32.3404 24.5479 23.2053 24.4727 18.599 18.2264C13.559 11.392 17.4145 1.61564 26.1146 0.23898C33.6082 -0.94705 39.9356 4.76151 39.6016 12.2205C39.5722 12.8994 39.4073 13.1444 38.6542 13.1398C32.9872 13.1039 27.3206 13.1181 21.6536 13.1169L20.7268 13.1164ZM34.9903 9.56667C35.0056 7.13126 31.5759 4.4005 28.3384 4.21276C24.07 3.96571 21.1853 7.32015 20.9088 9.56667H34.9903Z" fill="#F9FAFB"/>
<path d="M74.0659 9.65234H78.9219C79.4528 12.5515 80.8751 14.9041 83.4123 16.5235C85.0857 17.6184 87.0682 18.1621 89.0748 18.0763C93.4419 17.8866 97.5783 15.001 98.5979 9.66304H103.501C103.03 13.9649 101.131 17.4827 97.6071 20.0032C92.7158 23.5008 87.4113 23.9373 81.9956 21.3113C76.896 18.8389 74.2156 13.7421 74.0659 9.65234Z" fill="#F9FAFB"/>
<path d="M14.7525 5.39784C13.4121 4.92807 11.9695 4.81658 10.5712 5.07472C7.45465 5.6741 4.98583 8.5547 4.97057 11.6702C4.95502 14.86 4.95062 18.0499 4.97967 21.2394C4.98584 21.864 4.80505 22.0589 4.16936 22.0381C2.81081 21.9936 1.44928 22.0245 0.0531593 22.0245C0.0332021 21.7251 0.00794677 21.5186 0.00794677 21.3115C0.00530538 18.1688 -0.0108129 15.0267 0.0100247 11.884C0.016987 9.29939 0.881138 6.78791 2.4707 4.73233C4.06027 2.67675 6.28807 1.18981 8.81464 0.498097C10.5527 0.0127511 12.3819 -0.0654994 14.1561 0.269576C14.3762 0.311521 14.7202 0.558844 14.7249 0.717367C14.7692 2.24821 14.7525 3.78021 14.7525 5.39784Z" fill="#F9FAFB"/>
<path d="M88.6383 13.5862C86.8957 13.5578 85.2359 12.8482 84.0242 11.6136C82.8124 10.3791 82.1478 8.72056 82.1767 7.00301C82.2055 5.28547 82.9254 3.64956 84.178 2.45517C85.4306 1.26078 87.1132 0.605764 88.8557 0.634189C92.6802 0.752213 95.3987 3.63888 95.2831 7.45905C95.1795 10.8638 92.1249 13.6811 88.6383 13.5862Z" fill="#FF6F7A"/>
</g>
<defs>
<clipPath id="clip0">
<rect width="103.5" height="23" fill="white"/>
</clipPath>
</defs>
</svg>
